<svg xmlns="http://www.w3.org/2000/svg" xmlns:xlink="http://www.w3.org/1999/xlink" width="500" zoomAndPan="magnify" viewBox="0 0 375 374.999991" height="500" preserveAspectRatio="xMidYMid meet" version="1.0"><defs><g/><clipPath id="id1"><path d="M 282.550781 155.597656 L 346.207031 155.597656 L 346.207031 219.253906 L 282.550781 219.253906 Z M 282.550781 155.597656 " clip-rule="nonzero"/></clipPath><clipPath id="id2"><path d="M 305 196 L 312 196 L 312 202.761719 L 305 202.761719 Z M 305 196 " clip-rule="nonzero"/></clipPath><clipPath id="id3"><path d="M 319 196 L 326 196 L 326 202.761719 L 319 202.761719 Z M 319 196 " clip-rule="nonzero"/></clipPath><clipPath id="id4"><path d="M 298.519531 172.179688 L 330.347656 172.179688 L 330.347656 199 L 298.519531 199 Z M 298.519531 172.179688 " clip-rule="nonzero"/></clipPath></defs><g fill="#000000" fill-opacity="1"><g transform="translate(28.642336, 212.624986)"><g><path d="M 18.703125 0.546875 C 32.609375 0.546875 41.992188 -4.726562 42.0625 -19.042969 C 42.0625 -27.882812 41.035156 -39.800781 40.625 -46.378906 C 40.554688 -47.40625 39.871094 -47.953125 38.773438 -48.023438 C 36.511719 -48.160156 26.921875 -48.296875 22.46875 -48.296875 C 17.605469 -48.296875 11.371094 -48.296875 7.261719 -48.023438 C 6.371094 -47.953125 5.6875 -47.40625 5.550781 -46.378906 C 5.273438 -44.253906 4.933594 -38.292969 4.933594 -36.171875 C 4.863281 -34.390625 6.371094 -33.773438 7.671875 -35.144531 C 11.03125 -38.292969 16.507812 -39.871094 23.703125 -39.871094 C 29.457031 -39.871094 31.101562 -37.679688 31.445312 -34.046875 C 31.71875 -29.730469 31.71875 -25.347656 31.445312 -21.03125 C 30.828125 -11.851562 25.550781 -8.425781 18.839844 -8.425781 C 12.195312 -8.425781 7.605469 -10.753906 4.726562 -16.371094 C 3.90625 -18.152344 2.125 -17.675781 1.988281 -15.6875 C 1.710938 -11.917969 1.644531 -8.082031 1.4375 -4.316406 C 1.4375 -3.355469 1.988281 -2.601562 2.671875 -2.328125 C 6.507812 -0.617188 13.976562 0.546875 18.703125 0.546875 Z M 18.703125 0.546875 "/></g></g></g><g fill="#000000" fill-opacity="1"><g transform="translate(72.411349, 212.624986)"><g><path d="M 20.414062 0.546875 C 31.375 0.546875 39.457031 -5.753906 39.457031 -18.359375 C 39.457031 -30.621094 31.445312 -37.816406 20.414062 -37.816406 C 9.316406 -37.816406 1.234375 -30.621094 1.234375 -18.359375 C 1.234375 -5.753906 9.453125 0.546875 20.414062 0.546875 Z M 20.414062 -7.535156 C 15.003906 -7.535156 11.097656 -11.507812 11.097656 -18.703125 C 11.097656 -25.550781 14.867188 -29.730469 20.414062 -29.730469 C 25.894531 -29.730469 29.730469 -25.550781 29.730469 -18.703125 C 29.730469 -11.507812 25.757812 -7.535156 20.414062 -7.535156 Z M 20.414062 -7.535156 "/></g></g></g><g fill="#000000" fill-opacity="1"><g transform="translate(113.098034, 212.624986)"><g><path d="M 20.414062 0.546875 C 31.375 0.546875 39.457031 -5.753906 39.457031 -18.359375 C 39.457031 -30.621094 31.445312 -37.816406 20.414062 -37.816406 C 9.316406 -37.816406 1.234375 -30.621094 1.234375 -18.359375 C 1.234375 -5.753906 9.453125 0.546875 20.414062 0.546875 Z M 20.414062 -7.535156 C 15.003906 -7.535156 11.097656 -11.507812 11.097656 -18.703125 C 11.097656 -25.550781 14.867188 -29.730469 20.414062 -29.730469 C 25.894531 -29.730469 29.730469 -25.550781 29.730469 -18.703125 C 29.730469 -11.507812 25.757812 -7.535156 20.414062 -7.535156 Z M 20.414062 -7.535156 "/></g></g></g><g fill="#000000" fill-opacity="1"><g transform="translate(153.784719, 212.624986)"><g><path d="M 6.851562 0.273438 C 7.535156 0.273438 9.386719 0.207031 10.480469 0 C 11.304688 -0.207031 12.058594 -0.820312 11.988281 -1.917969 C 11.714844 -7.398438 11.644531 -12.46875 11.851562 -17.605469 C 12.058594 -24.386719 14.867188 -28.429688 18.496094 -28.429688 C 22.539062 -28.429688 25.210938 -24.59375 25.277344 -18.289062 C 25.347656 -13.976562 25.210938 -7.191406 24.9375 -1.917969 C 24.867188 -0.820312 25.6875 -0.207031 26.511719 0 C 27.882812 0.273438 29.9375 0.273438 30.894531 0.273438 C 31.71875 0.273438 33.15625 0.207031 34.253906 0 C 35.210938 -0.207031 36.035156 -0.820312 35.898438 -1.988281 C 35.554688 -7.054688 35.417969 -13.085938 35.417969 -17.742188 C 35.417969 -24.457031 38.429688 -28.429688 41.992188 -28.429688 C 46.035156 -28.429688 48.707031 -24.59375 48.777344 -18.289062 C 48.84375 -14.660156 48.707031 -6.988281 48.363281 -1.917969 C 48.296875 -0.820312 49.117188 -0.207031 50.007812 0 C 51.308594 0.273438 53.367188 0.273438 54.324219 0.273438 C 55.078125 0.273438 56.449219 0.207031 57.613281 0 C 58.503906 -0.207031 59.1875 -0.753906 59.1875 -1.988281 C 59.1875 -8.835938 58.847656 -15.414062 58.640625 -20.484375 C 58.160156 -31.71875 52.476562 -37.816406 45.625 -37.816406 C 40.964844 -37.816406 37.335938 -35.621094 35.347656 -32.128906 C 34.390625 -30.140625 33.5 -30.074219 32.609375 -32.199219 C 30.691406 -35.964844 27.128906 -37.816406 23.019531 -37.816406 C 19.179688 -37.816406 15.34375 -35.347656 13.425781 -31.375 C 12.742188 -29.867188 11.988281 -30.210938 11.988281 -31.785156 C 11.988281 -32.746094 12.332031 -33.976562 12.605469 -35.554688 C 12.742188 -36.511719 12.058594 -37.0625 11.167969 -37.265625 C 10.277344 -37.472656 8.699219 -37.539062 7.535156 -37.539062 C 6.097656 -37.539062 5 -37.472656 4.042969 -37.265625 C 3.152344 -37.128906 2.671875 -36.511719 2.535156 -35.554688 C 1.78125 -25.277344 1.644531 -18.703125 1.644531 -1.988281 C 1.644531 -0.890625 2.328125 -0.207031 3.082031 0 C 4.246094 0.273438 6.097656 0.273438 6.851562 0.273438 Z M 6.851562 0.273438 "/></g></g></g><g fill="#000000" fill-opacity="1"><g transform="translate(214.540758, 212.624986)"><g><path d="M 7.398438 -40.828125 C 10.824219 -40.828125 13.222656 -42.882812 13.222656 -45.691406 C 13.222656 -48.570312 10.824219 -50.625 7.398438 -50.625 C 4.042969 -50.625 1.644531 -48.570312 1.644531 -45.691406 C 1.644531 -42.882812 4.042969 -40.828125 7.398438 -40.828125 Z M 7.535156 0.273438 C 8.289062 0.273438 10.070312 0.207031 11.234375 0 C 12.058594 -0.207031 12.742188 -0.820312 12.742188 -1.917969 C 12.742188 -17.8125 12.671875 -25.347656 11.988281 -35.554688 C 11.917969 -36.71875 11.441406 -37.0625 10.550781 -37.265625 C 9.660156 -37.472656 8.21875 -37.539062 7.605469 -37.539062 C 6.851562 -37.539062 5.273438 -37.472656 4.316406 -37.265625 C 3.425781 -37.128906 2.945312 -36.71875 2.878906 -35.554688 C 2.191406 -25.347656 2.125 -17.8125 2.125 -1.988281 C 2.125 -0.890625 2.808594 -0.207031 3.628906 0 C 4.796875 0.273438 6.78125 0.273438 7.535156 0.273438 Z M 7.535156 0.273438 "/></g></g></g><g fill="#000000" fill-opacity="1"><g transform="translate(229.404424, 212.624986)"><g><path d="M 12.808594 0.546875 C 17.675781 0.546875 22.46875 -2.261719 24.59375 -6.78125 C 25.140625 -7.945312 26.167969 -7.671875 26.03125 -6.371094 C 25.894531 -4.933594 25.621094 -3.289062 25.484375 -2.398438 C 25.277344 -1.234375 26.167969 -0.273438 27.332031 -0.0703125 C 28.429688 0.207031 30.417969 0.273438 31.511719 0.273438 C 32.8125 0.273438 34.253906 0.207031 35.210938 -0.0703125 C 36.375 -0.273438 37.128906 -1.027344 37.128906 -2.191406 C 36.855469 -8.425781 36.375 -18.289062 35.964844 -23.566406 C 35.074219 -33.5 29.183594 -37.816406 18.703125 -37.816406 C 14.316406 -37.816406 10.070312 -37.199219 6.371094 -36.035156 C 5.550781 -35.691406 5.136719 -34.9375 5 -33.910156 C 4.796875 -32.539062 4.316406 -28.5 4.246094 -27.058594 C 4.109375 -25.003906 5.890625 -24.25 6.917969 -25.6875 C 10.207031 -28.566406 14.933594 -29.800781 19.042969 -29.800781 C 23.910156 -29.800781 25.6875 -28.222656 25.6875 -26.785156 C 25.6875 -24.320312 22.878906 -23.496094 15.003906 -22.402344 C 6.441406 -20.960938 1.234375 -17.058594 1.234375 -10.207031 C 1.234375 -2.398438 5.890625 0.546875 12.808594 0.546875 Z M 17.46875 -7.945312 C 13.359375 -7.945312 11.644531 -9.179688 11.644531 -12.261719 C 11.644531 -16.441406 16.304688 -19.25 21.167969 -19.25 C 24.386719 -19.25 25.550781 -17.675781 25.550781 -15.480469 C 25.550781 -10.6875 20.894531 -7.945312 17.46875 -7.945312 Z M 17.46875 -7.945312 "/></g></g></g><g clip-path="url(#id1)"><path fill="#f0b428" d="M 314.378906 155.597656 C 296.800781 155.597656 282.550781 169.847656 282.550781 187.425781 C 282.550781 205.003906 296.800781 219.253906 314.378906 219.253906 C 331.957031 219.253906 346.207031 205.003906 346.207031 187.425781 C 346.207031 169.847656 331.957031 155.597656 314.378906 155.597656 " fill-opacity="1" fill-rule="nonzero"/></g><g clip-path="url(#id2)"><path fill="#ffffff" d="M 308.503906 196.660156 C 306.84375 196.660156 305.492188 198.011719 305.492188 199.671875 C 305.492188 201.332031 306.84375 202.683594 308.503906 202.683594 C 310.164062 202.683594 311.515625 201.332031 311.515625 199.671875 C 311.515625 198.011719 310.160156 196.660156 308.503906 196.660156 Z M 308.503906 196.660156 " fill-opacity="1" fill-rule="nonzero"/></g><g clip-path="url(#id3)"><path fill="#ffffff" d="M 322.71875 196.660156 C 321.058594 196.660156 319.707031 198.011719 319.707031 199.671875 C 319.707031 201.332031 321.058594 202.683594 322.71875 202.683594 C 324.378906 202.683594 325.726562 201.332031 325.726562 199.671875 C 325.726562 198.011719 324.378906 196.660156 322.71875 196.660156 Z M 322.71875 196.660156 " fill-opacity="1" fill-rule="nonzero"/></g><g clip-path="url(#id4)"><path fill="#ffffff" d="M 329.882812 177.949219 C 329.507812 177.425781 328.890625 177.109375 328.246094 177.109375 L 304.570312 177.109375 L 304.25 174.71875 C 304.0625 173.296875 302.839844 172.222656 301.398438 172.222656 L 299.457031 172.222656 C 298.9375 172.222656 298.523438 172.644531 298.523438 173.15625 C 298.523438 173.671875 298.941406 174.09375 299.457031 174.09375 L 301.402344 174.09375 C 301.90625 174.09375 302.332031 174.46875 302.398438 174.964844 L 302.8125 178.066406 C 302.8125 178.128906 302.824219 178.195312 302.835938 178.257812 L 304.449219 190.449219 L 302.96875 190.546875 C 301.585938 190.636719 300.503906 191.792969 300.503906 193.179688 C 300.503906 194.628906 301.6875 195.8125 303.140625 195.8125 L 324.621094 195.8125 C 325.707031 195.8125 326.644531 196.511719 326.960938 197.550781 C 327.082031 197.953125 327.453125 198.214844 327.855469 198.214844 C 327.945312 198.214844 328.035156 198.203125 328.125 198.175781 C 328.617188 198.027344 328.898438 197.507812 328.75 197.011719 C 328.199219 195.175781 326.539062 193.941406 324.621094 193.941406 L 303.140625 193.941406 C 302.71875 193.941406 302.375 193.597656 302.375 193.175781 C 302.375 192.769531 302.6875 192.4375 303.09375 192.410156 L 305.570312 192.253906 C 305.570312 192.253906 305.574219 192.253906 305.574219 192.253906 C 305.574219 192.253906 305.578125 192.253906 305.578125 192.253906 L 324.355469 190.859375 C 325.597656 190.765625 326.65625 189.949219 327.058594 188.777344 L 330.152344 179.777344 C 330.363281 179.164062 330.261719 178.476562 329.882812 177.949219 Z M 311.886719 187.007812 C 311.886719 187.523438 311.464844 187.941406 310.953125 187.941406 C 310.433594 187.941406 310.019531 187.519531 310.019531 187.007812 L 310.019531 181.839844 C 310.019531 181.320312 310.4375 180.902344 310.953125 180.902344 C 311.46875 180.902344 311.886719 181.324219 311.886719 181.839844 Z M 316.996094 187.007812 C 316.996094 187.523438 316.574219 187.941406 316.0625 187.941406 C 315.542969 187.941406 315.125 187.519531 315.125 187.007812 L 315.125 181.839844 C 315.125 181.320312 315.546875 180.902344 316.0625 180.902344 C 316.578125 180.902344 316.996094 181.324219 316.996094 181.839844 Z M 322.109375 187.007812 C 322.109375 187.523438 321.6875 187.941406 321.175781 187.941406 C 320.65625 187.941406 320.238281 187.519531 320.238281 187.007812 L 320.238281 181.839844 C 320.238281 181.320312 320.660156 180.902344 321.175781 180.902344 C 321.691406 180.902344 322.109375 181.324219 322.109375 181.839844 Z M 322.109375 187.007812 " fill-opacity="1" fill-rule="nonzero"/></g></svg>